<?xml version="1.0" encoding="UTF-8" standalone="no"?><!DOCTYPE svg PUBLIC "-//W3C//DTD SVG 1.1//EN" "http://www.w3.org/Graphics/SVG/1.1/DTD/svg11.dtd"><svg width="100%" height="100%" viewBox="0 0 250 250" version="1.1" xmlns="http://www.w3.org/2000/svg" xmlns:xlink="http://www.w3.org/1999/xlink" xml:space="preserve" xmlns:serif="http://www.serif.com/" style="fill-rule:evenodd;clip-rule:evenodd;stroke-linejoin:round;stroke-miterlimit:2;"><path d="M108.934,4.487c9.899,-5.201 21.723,-5.201 31.622,-0c27.924,14.73 55.634,30.318 82.693,46.518c9.921,5.964 16.126,16.565 16.467,28.136c0.843,30.474 0.843,61.183 -0,91.657c-0.341,11.571 -6.546,22.173 -16.467,28.136c-27.059,16.2 -54.769,31.789 -82.693,46.519c-9.899,5.2 -21.723,5.2 -31.622,-0c-27.924,-14.73 -55.634,-30.319 -82.693,-46.519c-9.921,-5.963 -16.126,-16.565 -16.467,-28.136c-0.843,-30.474 -0.843,-61.183 0,-91.657c0.341,-11.57 6.546,-22.172 16.468,-28.136c27.058,-16.2 54.768,-31.788 82.692,-46.518Z" style="fill:#074d39;"/><g id="Tag"><path id="hole" d="M147.012,87.212c-4.291,0 -8.316,1.67 -11.349,4.702c-3.032,3.033 -4.702,7.062 -4.702,11.349c-0,4.29 1.67,8.321 4.702,11.35c3.031,3.032 7.06,4.704 11.349,4.704c4.289,-0 8.319,-1.672 11.35,-4.704c6.259,-6.258 6.261,-16.441 -0,-22.701c-3.029,-3.032 -7.061,-4.7 -11.35,-4.7Zm5.849,21.899c-1.561,1.561 -3.64,2.42 -5.849,2.42c-2.208,0 -4.287,-0.859 -5.848,-2.422c-1.562,-1.56 -2.421,-3.639 -2.421,-5.847c-0,-2.209 0.861,-4.285 2.421,-5.849c1.561,-1.559 3.64,-2.421 5.848,-2.421c2.209,0 4.288,0.862 5.847,2.421c3.227,3.227 3.227,8.474 0.002,11.698Z" style="fill:#fff;fill-rule:nonzero;"/><path id="tag" d="M190.013,101.541l-41.28,-41.273c-0.965,-0.968 -2.367,-1.357 -3.695,-1.025l-22.014,5.505c-0.685,0.171 -1.31,0.525 -1.809,1.024l-78.427,78.425c-0.826,0.828 -1.8,6.409 -0.567,7.687c34.672,35.973 55.892,43.523 67.587,43.523c4.366,0 7.341,-1.017 9.192,-1.964c0.81,-0.112 1.593,-0.464 2.212,-1.088l63.294,-63.293c0.497,-0.498 0.853,-1.123 1.024,-1.81l5.507,-22.016c0.33,-1.325 -0.057,-2.727 -1.024,-3.695Zm-80.205,86.082c-6.161,0 -18.221,-2.914 -38.021,-18.885c8.087,3.195 17.114,5.575 26.062,5.575c3.268,0 6.419,-0.322 9.414,-0.963c0.098,4.179 0.889,9.823 3.925,14.224c-0.426,0.032 -0.886,0.049 -1.38,0.049Zm68.43,-63.301l-59.807,59.81c-4.545,-4.747 -3.188,-15.343 -3.17,-15.451c0.203,-1.365 -0.33,-2.734 -1.4,-3.599c-1.074,-0.869 -2.525,-1.107 -3.811,-0.621c-3.684,1.372 -7.788,2.074 -12.201,2.074c-19.607,0 -40.664,-13.491 -47.854,-18.539l75.961,-75.96l18.832,-4.708l18.981,18.984c0.327,0.416 0.677,0.83 1.08,1.235c0.354,0.352 0.734,0.67 1.129,0.973l16.97,16.97l-4.71,18.832Z" style="fill:#fff;fill-rule:nonzero;"/><path id="label" d="M106.892,112.013c-0.565,0.968 -0.768,1.9 -0.608,2.796c0.16,0.896 0.683,1.763 1.568,2.601c0.884,0.838 1.963,1.45 3.236,1.837c1.272,0.386 1.997,0.663 2.176,0.832c0.264,0.25 0.387,0.553 0.369,0.908c-0.019,0.355 -0.173,0.686 -0.464,0.993c-0.635,0.671 -1.678,0.779 -3.13,0.325c-1.452,-0.454 -2.909,-1.374 -4.372,-2.76c-1.727,-1.636 -2.671,-3.451 -2.833,-5.445c-0.162,-1.995 0.48,-3.756 1.927,-5.283c1.439,-1.52 3.159,-2.253 5.16,-2.2c2,0.054 3.864,0.898 5.591,2.534c1.541,1.46 2.388,3.125 2.539,4.994c0.152,1.87 -0.397,3.465 -1.648,4.785c-0.399,0.421 -0.774,0.614 -1.126,0.578c-0.352,-0.035 -0.846,-0.354 -1.481,-0.955l-6.904,-6.54Zm7.351,3.795c0.507,-0.779 0.682,-1.588 0.523,-2.429c-0.158,-0.84 -0.641,-1.642 -1.447,-2.406c-0.778,-0.737 -1.568,-1.157 -2.37,-1.26c-0.803,-0.104 -1.628,0.106 -2.476,0.63l5.77,5.465Z" style="fill:#fff;fill-rule:nonzero;"/><path d="M125.61,133.438l0.139,0.132c0.399,0.378 0.606,0.76 0.62,1.146c0.014,0.385 -0.165,0.774 -0.537,1.167c-0.398,0.421 -0.787,0.628 -1.166,0.621c-0.38,-0.007 -0.812,-0.241 -1.297,-0.7l-2.633,-2.495c-0.478,-0.452 -0.735,-0.871 -0.77,-1.256c-0.034,-0.385 0.148,-0.788 0.546,-1.209c0.372,-0.393 0.753,-0.591 1.142,-0.594c0.389,-0.004 0.787,0.187 1.194,0.572l0.128,0.122l2.93,-3.094c0.812,-0.856 1.268,-1.578 1.371,-2.165c0.102,-0.586 -0.125,-1.144 -0.682,-1.671c-0.592,-0.561 -1.28,-0.803 -2.064,-0.726c-0.783,0.077 -1.513,0.472 -2.189,1.186l-2.93,3.093l0.128,0.122c0.407,0.385 0.617,0.771 0.631,1.156c0.014,0.386 -0.165,0.775 -0.536,1.167c-0.399,0.421 -0.79,0.627 -1.173,0.616c-0.382,-0.01 -0.813,-0.242 -1.291,-0.695l-2.655,-2.514c-0.478,-0.453 -0.732,-0.87 -0.764,-1.252c-0.031,-0.381 0.153,-0.783 0.552,-1.204c0.371,-0.392 0.75,-0.592 1.136,-0.599c0.386,-0.007 0.782,0.182 1.189,0.567l0.128,0.122l4.907,-5.181l-0.182,-0.172c-0.385,-0.365 -0.585,-0.741 -0.599,-1.126c-0.014,-0.386 0.158,-0.767 0.517,-1.146c0.399,-0.421 0.789,-0.626 1.172,-0.615c0.383,0.01 0.82,0.248 1.313,0.715l1.819,1.723c0.2,0.19 0.315,0.373 0.344,0.549c0.029,0.177 -0.027,0.34 -0.169,0.49l-0.791,0.835c0.815,-0.203 1.601,-0.193 2.358,0.029c0.757,0.223 1.47,0.652 2.141,1.288c1.142,1.081 1.665,2.233 1.57,3.456c-0.096,1.223 -0.816,2.544 -2.161,3.965l-3.386,3.575Z" style="fill:#fff;fill-rule:nonzero;"/><path d="M137.293,134.675l-2.393,6.385l6.343,-2.644l-0.172,-0.162c-0.385,-0.365 -0.585,-0.744 -0.599,-1.136c-0.014,-0.393 0.162,-0.782 0.527,-1.167c0.398,-0.421 0.784,-0.625 1.156,-0.61c0.373,0.014 0.809,0.257 1.308,0.731l2.516,2.382c0.499,0.473 0.765,0.897 0.796,1.272c0.031,0.374 -0.15,0.769 -0.542,1.183c-0.365,0.385 -0.742,0.583 -1.131,0.594c-0.389,0.01 -0.776,-0.167 -1.162,-0.532l-0.182,-0.172l-9.577,3.743c-0.695,0.262 -1.189,0.359 -1.483,0.29c-0.294,-0.068 -0.637,-0.288 -1.03,-0.66c-0.713,-0.676 -0.911,-1.432 -0.593,-2.268c0.039,-0.098 0.068,-0.172 0.088,-0.221l3.411,-9.584l-0.171,-0.162c-0.386,-0.365 -0.586,-0.743 -0.6,-1.136c-0.014,-0.392 0.162,-0.781 0.527,-1.167c0.398,-0.421 0.786,-0.622 1.162,-0.605c0.376,0.018 0.81,0.26 1.302,0.726l2.719,2.575c0.493,0.467 0.756,0.889 0.791,1.267c0.034,0.378 -0.144,0.774 -0.536,1.188c-0.365,0.385 -0.744,0.581 -1.137,0.589c-0.393,0.007 -0.778,-0.169 -1.156,-0.527l-0.182,-0.172Z" style="fill:#fff;fill-rule:nonzero;"/><path id="string" d="M155.755,101.1c-2.92,-0.269 -5.217,-1.357 -6.686,-3.217c-2.333,-2.953 -2.297,-7.501 0.101,-12.807c2.398,-5.306 6.864,-10.727 12.593,-15.279c5.726,-4.549 12.016,-7.677 17.71,-8.801c11.766,-2.329 17.305,4.688 12.354,15.64c-2.395,5.304 -6.866,10.73 -12.591,15.28c-0.889,0.706 -1.791,1.378 -2.703,2.013l-4.052,0.18c2.6,-1.407 5.018,-2.873 6.263,-3.862c2.949,-2.343 8.456,-8.393 9.691,-11.126c2.551,-5.642 5.905,-10.917 0.594,-15.796c-4.637,-4.261 -18.905,3.067 -22.097,4.893c-1.55,0.887 -9.477,7.9 -13.418,13.197c-1.873,2.518 -6.09,10.874 -2.753,15.52c1.207,1.681 3.007,2.305 4.917,2.412l0.077,1.753Z" style="fill:#fff;fill-rule:nonzero;"/></g></svg>